<svg width="144" height="24" viewBox="0 0 144 24" fill="none" xmlns="http://www.w3.org/2000/svg">
<path d="M18.6231 9.83764L17.6952 17.6405C17.6415 18.0923 17.4224 18.5089 17.0791 18.8114C16.7355 19.1138 16.2921 19.2809 15.8326 19.2811H15.0272V17.0367C15.0272 16.5018 14.8124 15.9889 14.43 15.611C14.0477 15.2329 13.5294 15.0212 12.9891 15.0218H11.0005C10.4609 15.0218 9.9433 15.2342 9.56163 15.6121C9.17996 15.9897 8.96567 16.5022 8.96567 17.0366V19.281H8.15702C7.69743 19.2808 7.25402 19.1137 6.91053 18.8114C6.56723 18.5088 6.34807 18.0923 6.29445 17.6404L5.36648 9.83758C5.32371 9.47092 5.39237 9.09989 5.56367 8.77212C5.73474 8.44413 6.00083 8.1743 6.32747 7.9967L8.08399 7.03542H8.08422C8.3792 8.1931 9.1821 9.15919 10.2726 9.66913C11.3631 10.1788 12.6267 10.1788 13.7171 9.66913C14.8076 9.15918 15.6105 8.1931 15.9055 7.03542L17.662 7.9967H17.6622C17.9896 8.17362 18.2561 8.44347 18.4272 8.77148C18.5985 9.09947 18.667 9.47073 18.6233 9.83758L18.6231 9.83764ZM8.45866 4.12504C8.69978 3.69474 9.01765 3.31112 9.39681 2.99301L8.60135 1.828C8.47444 1.62934 8.25551 1.5062 8.01809 1.50002H4.66071C4.28874 1.52519 4 1.83143 4 2.20062C4 2.5698 4.28874 2.87579 4.66071 2.90098H7.64335L8.45866 4.12504ZM19.3292 1.5H15.972C15.7352 1.50046 15.5142 1.61719 15.382 1.81173L14.5865 2.98975L14.5868 2.98952C14.968 3.30881 15.2879 3.69334 15.5314 4.125L16.3567 2.90761H19.3393C19.7113 2.88243 20 2.57619 20 2.20701C20 1.83782 19.7113 1.53184 19.3393 1.50641L19.3292 1.5ZM12.9896 15.6784H11.001C10.6371 15.6784 10.288 15.8214 10.0307 16.0762C9.7734 16.3309 9.62892 16.6765 9.62892 17.0368V21.1416C9.62892 21.5018 9.7734 21.8474 10.0307 22.1022C10.288 22.357 10.6371 22.5 11.001 22.5H12.9896C13.3535 22.5 13.7026 22.357 13.9599 22.1022C14.2172 21.8475 14.3617 21.5019 14.3617 21.1416V17.0368C14.3617 16.6766 14.2172 16.3309 13.9599 16.0762C13.7026 15.8214 13.3535 15.6784 12.9896 15.6784ZM8.61828 6.05152C8.61828 5.1646 8.97406 4.31435 9.60726 3.68717C10.2407 3.06028 11.0998 2.70778 11.9954 2.70778C12.891 2.70778 13.75 3.06026 14.3835 3.68717C15.0167 4.31429 15.3725 5.1646 15.3725 6.05152C15.3725 6.93821 15.0167 7.78869 14.3835 8.41588C13.75 9.04277 12.891 9.39503 11.9954 9.39503C11.1 9.39411 10.2414 9.04164 9.60845 8.41476C8.97526 7.78811 8.61899 6.93804 8.61834 6.05158L8.61828 6.05152ZM10.4277 6.05152C10.4277 6.46305 10.5928 6.85788 10.8868 7.14897C11.1809 7.43988 11.5797 7.60353 11.9953 7.60353C12.4109 7.60353 12.8098 7.43988 13.1038 7.14897C13.3978 6.85783 13.5629 6.46302 13.5629 6.05152C13.5629 5.63977 13.3978 5.24516 13.1038 4.95407C12.8097 4.66298 12.4109 4.49952 11.9953 4.49952C11.5792 4.4986 11.1799 4.66179 10.8859 4.95316C10.5916 5.24429 10.4268 5.63958 10.4277 6.05155L10.4277 6.05152Z" fill="#94A196"/>
<path d="M61 6.63389V10.6727C60.9992 10.8235 60.9421 10.9678 60.8413 11.0732C60.7402 11.1788 60.6041 11.2368 60.4628 11.2343H59.2141V6.06916H60.4628C60.6045 6.06685 60.7412 6.1253 60.8423 6.23129C60.9431 6.33749 61 6.48244 61 6.63389L61 6.63389ZM43 6.63389V10.6727C43 10.9829 43.2354 11.2343 43.526 11.2343H44.8367L44.8365 6.06917H43.526C43.235 6.07085 43 6.32326 43 6.63389H43ZM46.8024 20.0991C46.8024 20.3381 46.8913 20.5672 47.0496 20.7361C47.2078 20.9051 47.4224 21 47.6462 21H49.1341C49.3578 21 49.5724 20.9051 49.7307 20.7361C49.8888 20.5672 49.9777 20.3381 49.9777 20.0991V18.8709H46.8024L46.8024 20.0991ZM54.6548 20.0991C54.6548 20.3381 54.7437 20.5672 54.902 20.7361C55.0602 20.9051 55.2748 21 55.4986 21H56.9751C57.199 21 57.4136 20.9051 57.5717 20.7361C57.73 20.5672 57.8189 20.3381 57.8189 20.0991V18.8709H54.6548L54.6548 20.0991ZM58.6515 3.88295V13.3032H45.3986V3.88295C45.3986 3.64876 45.4857 3.4242 45.6409 3.25849C45.7959 3.09301 46.0062 3 46.2255 3H57.8246C58.0439 3 58.2542 3.09301 58.4092 3.25849C58.5644 3.42418 58.6515 3.64873 58.6515 3.88295H58.6515ZM56.9639 5.3484C56.9623 5.04718 56.7342 4.80336 56.4521 4.80191H47.5982C47.3161 4.80338 47.088 5.0472 47.0864 5.3484V10.9581C47.088 11.2589 47.3167 11.5017 47.5982 11.5017H56.4521C56.7336 11.5017 56.9624 11.2589 56.9639 10.9581V5.3484ZM45.399 13.9037H58.6519V17.3962C58.6511 17.6298 58.5636 17.8537 58.4086 18.0185C58.2537 18.1834 58.0437 18.276 57.825 18.276H46.2259C46.0072 18.276 45.7973 18.1834 45.6423 18.0185C45.4873 17.8537 45.3998 17.6297 45.399 17.3962L45.399 13.9037ZM54.4864 16.0868C54.4864 16.3656 54.5902 16.6329 54.7748 16.83C54.9594 17.0271 55.2097 17.1379 55.4708 17.1379C55.7318 17.1379 55.9823 17.0271 56.1669 16.83C56.3515 16.6329 56.4551 16.3656 56.4551 16.0868C56.4551 15.8082 56.3515 15.5407 56.1669 15.3436C55.9823 15.1465 55.7317 15.0359 55.4708 15.0359C55.2097 15.0359 54.9594 15.1465 54.7748 15.3436C54.5902 15.5407 54.4864 15.8082 54.4864 16.0868ZM47.5958 16.0868C47.5958 16.3656 47.6994 16.6329 47.884 16.83C48.0686 17.0271 48.3191 17.1379 48.58 17.1379C48.8411 17.1379 49.0915 17.0271 49.2761 16.83C49.4607 16.6329 49.5644 16.3656 49.5644 16.0868C49.5644 15.8082 49.4607 15.5407 49.2761 15.3436C49.0914 15.1465 48.8411 15.0359 48.58 15.0359C48.3191 15.0359 48.0685 15.1465 47.884 15.3436C47.6994 15.5407 47.5958 15.8082 47.5958 16.0868Z" fill="#94A196"/>
<path d="M83.6282 18.1749H87.6908V19.4857C87.6914 19.7528 87.5866 20.0095 87.3987 20.1996C87.2106 20.3896 86.9551 20.4976 86.6876 20.5H84.6438C84.3744 20.5 84.1161 20.3931 83.9258 20.203C83.7353 20.0128 83.6282 19.7548 83.6282 19.4857L83.6282 18.1749ZM96.3002 19.4857C96.2995 19.7546 96.4057 20.0125 96.5958 20.2028C96.7856 20.3931 97.0437 20.5 97.3127 20.5H99.3535C99.6227 20.5 99.881 20.3931 100.072 20.203C100.262 20.0127 100.369 19.7548 100.369 19.4857V18.1748H96.3065L96.3002 19.4857ZM102 12.8724V16.8299C102.001 17.0215 101.925 17.2052 101.789 17.3407C101.654 17.4761 101.47 17.5518 101.278 17.551H82.7218C82.5301 17.5518 82.3459 17.4761 82.2106 17.3407C82.075 17.2052 81.9991 17.0215 82 16.8299V12.6759C82 12.2607 82.0872 11.8504 82.2561 11.4711L83.1686 9.4081L85.3343 3.93693C85.4353 3.67873 85.6818 3.50631 85.9595 3.5H97.9373C98.215 3.50631 98.4615 3.67873 98.5624 3.93693L100.75 9.39567L101.753 11.6679V11.6677C101.919 12.0478 102.003 12.4582 102 12.8724L102 12.8724ZM85.3715 8.14715H98.5374C98.6195 8.14715 98.6965 8.10622 98.7423 8.03786C98.788 7.96972 98.7968 7.88308 98.7654 7.8071L97.6248 4.90136C97.5884 4.80535 97.4962 4.742 97.3936 4.74222H86.5246C86.422 4.742 86.33 4.80535 86.2934 4.90136L85.1402 7.8071C85.1106 7.88351 85.1204 7.96994 85.1664 8.03786C85.2126 8.10579 85.2893 8.14671 85.3715 8.14715H85.3715ZM87.7622 14.4109V14.4112C87.763 13.9871 87.5952 13.5802 87.2955 13.28C86.9957 12.9795 86.5888 12.8106 86.1643 12.8099C85.7397 12.8095 85.3325 12.9773 85.0319 13.2769C84.7315 13.5765 84.5626 13.9829 84.5621 14.407C84.5619 14.8309 84.7304 15.2375 85.0304 15.5375C85.3305 15.8375 85.7377 16.006 86.1621 16.006C86.5861 16.006 86.9924 15.838 87.2924 15.5391C87.5925 15.2399 87.7615 14.8343 87.7621 14.4111L87.7622 14.4109ZM99.4341 14.4109V14.4112C99.435 13.9869 99.2669 13.58 98.967 13.2795C98.667 12.9793 98.2598 12.8104 97.8352 12.8099C97.4106 12.8097 97.0032 12.9782 96.7028 13.278C96.4024 13.578 96.2339 13.9849 96.2341 14.409C96.2346 14.8333 96.4035 15.2399 96.7043 15.5393C97.0049 15.8388 97.4125 16.0067 97.8374 16.006C98.261 16.006 98.6671 15.838 98.9666 15.5388C99.2661 15.2397 99.4341 14.8341 99.4341 14.4112L99.4341 14.4109Z" fill="#94A196"/>
<path d="M137.566 18.2719C137.687 18.2717 137.809 18.2615 137.929 18.2411L139.5 21H137.446L136.943 20.1197H127.057L126.554 21H124.5L126.071 18.2409V18.2411C126.191 18.2613 126.313 18.2717 126.434 18.2719H128.108L127.714 18.9442H136.286L135.891 18.2719L137.566 18.2719ZM139.174 12.6916L124.826 12.6918V4.58339C124.826 4.16336 124.996 3.76059 125.297 3.46378C125.599 3.16675 126.008 3 126.435 3H137.577C138.004 3 138.413 3.16675 138.715 3.46378C139.016 3.7606 139.186 4.16338 139.186 4.58339L139.174 12.6916ZM133.68 4.68715C133.68 4.60338 133.611 4.53531 133.526 4.53531H130.474C130.389 4.53531 130.32 4.60339 130.32 4.68715V5.10914C130.32 5.19291 130.389 5.26098 130.474 5.26098H133.526C133.611 5.26098 133.68 5.1929 133.68 5.10914V4.68715ZM139.174 13.2541V16.1284C139.174 16.5482 139.005 16.9506 138.703 17.247C138.401 17.5436 137.992 17.7098 137.566 17.709H126.423C125.997 17.7098 125.588 17.5436 125.286 17.247C124.984 16.9505 124.815 16.5482 124.815 16.1284V13.2541H139.174ZM129.174 15.4816C129.174 15.1965 129.059 14.9231 128.854 14.7216C128.649 14.5201 128.372 14.4069 128.082 14.4073C127.792 14.4075 127.515 14.5211 127.31 14.723C127.106 14.9248 126.991 15.1983 126.992 15.4836C126.992 15.7686 127.108 16.0417 127.313 16.243C127.518 16.4441 127.796 16.5567 128.086 16.5559C128.376 16.5567 128.654 16.4439 128.859 16.2422C129.065 16.0407 129.18 15.7671 129.18 15.4816L129.174 15.4816ZM136.994 15.4816H136.994C136.994 15.1965 136.879 14.9231 136.674 14.7216C136.469 14.5201 136.191 14.4069 135.902 14.4073C135.612 14.4075 135.334 14.5211 135.13 14.723C134.925 14.9248 134.811 15.1983 134.811 15.4836C134.812 15.7686 134.927 16.0417 135.133 16.243C135.338 16.4441 135.616 16.5567 135.905 16.5559C136.195 16.5567 136.474 16.4439 136.679 16.2422C136.884 16.0407 137 15.7671 137 15.4816L136.994 15.4816Z" fill="#94A196"/>
</svg>
